<svg width="41" height="40" viewBox="0 0 41 40" fill="none" xmlns="http://www.w3.org/2000/svg">
<g id="solar:calendar-bold">
<path id="Vector" d="M13.4167 4.16669C13.4167 3.83517 13.285 3.51722 13.0506 3.2828C12.8162 3.04838 12.4982 2.91669 12.1667 2.91669C11.8352 2.91669 11.5172 3.04838 11.2828 3.2828C11.0484 3.51722 10.9167 3.83517 10.9167 4.16669V6.80002C8.51669 6.99169 6.94336 7.46169 5.78669 8.62002C4.62836 9.77669 4.15836 11.3517 3.96503 13.75H37.035C36.8417 11.35 36.3717 9.77669 35.2134 8.62002C34.0567 7.46169 32.4817 6.99169 30.0834 6.79835V4.16669C30.0834 3.83517 29.9517 3.51722 29.7172 3.2828C29.4828 3.04838 29.1649 2.91669 28.8334 2.91669C28.5018 2.91669 28.1839 3.04838 27.9495 3.2828C27.7151 3.51722 27.5834 3.83517 27.5834 4.16669V6.68835C26.475 6.66669 25.2317 6.66669 23.8334 6.66669H17.1667C15.7684 6.66669 14.525 6.66669 13.4167 6.68835V4.16669Z" fill="#3B4A3F"/>
<path id="Vector_2" fill-rule="evenodd" clip-rule="evenodd" d="M3.83331 20C3.83331 18.6017 3.83331 17.3583 3.85498 16.25H37.145C37.1666 17.3583 37.1666 18.6017 37.1666 20V23.3333C37.1666 29.6183 37.1666 32.7617 35.2133 34.7133C33.26 36.665 30.1183 36.6667 23.8333 36.6667H17.1666C10.8816 36.6667 7.73831 36.6667 5.78665 34.7133C3.83498 32.76 3.83331 29.6183 3.83331 23.3333V20ZM28.8333 23.3333C29.2753 23.3333 29.6993 23.1577 30.0118 22.8452C30.3244 22.5326 30.5 22.1087 30.5 21.6667C30.5 21.2246 30.3244 20.8007 30.0118 20.4882C29.6993 20.1756 29.2753 20 28.8333 20C28.3913 20 27.9674 20.1756 27.6548 20.4882C27.3422 20.8007 27.1666 21.2246 27.1666 21.6667C27.1666 22.1087 27.3422 22.5326 27.6548 22.8452C27.9674 23.1577 28.3913 23.3333 28.8333 23.3333ZM28.8333 30C29.2753 30 29.6993 29.8244 30.0118 29.5118C30.3244 29.1993 30.5 28.7754 30.5 28.3333C30.5 27.8913 30.3244 27.4674 30.0118 27.1548C29.6993 26.8423 29.2753 26.6667 28.8333 26.6667C28.3913 26.6667 27.9674 26.8423 27.6548 27.1548C27.3422 27.4674 27.1666 27.8913 27.1666 28.3333C27.1666 28.7754 27.3422 29.1993 27.6548 29.5118C27.9674 29.8244 28.3913 30 28.8333 30ZM22.1666 21.6667C22.1666 22.1087 21.9911 22.5326 21.6785 22.8452C21.3659 23.1577 20.942 23.3333 20.5 23.3333C20.058 23.3333 19.634 23.1577 19.3215 22.8452C19.0089 22.5326 18.8333 22.1087 18.8333 21.6667C18.8333 21.2246 19.0089 20.8007 19.3215 20.4882C19.634 20.1756 20.058 20 20.5 20C20.942 20 21.3659 20.1756 21.6785 20.4882C21.9911 20.8007 22.1666 21.2246 22.1666 21.6667ZM22.1666 28.3333C22.1666 28.7754 21.9911 29.1993 21.6785 29.5118C21.3659 29.8244 20.942 30 20.5 30C20.058 30 19.634 29.8244 19.3215 29.5118C19.0089 29.1993 18.8333 28.7754 18.8333 28.3333C18.8333 27.8913 19.0089 27.4674 19.3215 27.1548C19.634 26.8423 20.058 26.6667 20.5 26.6667C20.942 26.6667 21.3659 26.8423 21.6785 27.1548C21.9911 27.4674 22.1666 27.8913 22.1666 28.3333ZM12.1666 23.3333C12.6087 23.3333 13.0326 23.1577 13.3452 22.8452C13.6577 22.5326 13.8333 22.1087 13.8333 21.6667C13.8333 21.2246 13.6577 20.8007 13.3452 20.4882C13.0326 20.1756 12.6087 20 12.1666 20C11.7246 20 11.3007 20.1756 10.9881 20.4882C10.6756 20.8007 10.5 21.2246 10.5 21.6667C10.5 22.1087 10.6756 22.5326 10.9881 22.8452C11.3007 23.1577 11.7246 23.3333 12.1666 23.3333ZM12.1666 30C12.6087 30 13.0326 29.8244 13.3452 29.5118C13.6577 29.1993 13.8333 28.7754 13.8333 28.3333C13.8333 27.8913 13.6577 27.4674 13.3452 27.1548C13.0326 26.8423 12.6087 26.6667 12.1666 26.6667C11.7246 26.6667 11.3007 26.8423 10.9881 27.1548C10.6756 27.4674 10.5 27.8913 10.5 28.3333C10.5 28.7754 10.6756 29.1993 10.9881 29.5118C11.3007 29.8244 11.7246 30 12.1666 30Z" fill="#3B4A3F"/>
</g>
</svg>
