<svg width="41" height="40" viewBox="0 0 41 40" fill="none" xmlns="http://www.w3.org/2000/svg">
<g id="solar:chart-2-bold">
<path id="Vector" d="M29.3217 3.82171C28.8333 4.31004 28.8333 5.09504 28.8333 6.66671V28.3334C28.8333 29.905 28.8333 30.69 29.3217 31.1784C29.81 31.6667 30.595 31.6667 32.1667 31.6667C33.7383 31.6667 34.5233 31.6667 35.0117 31.1784C35.5 30.69 35.5 29.905 35.5 28.3334V6.66671C35.5 5.09504 35.5 4.31004 35.0117 3.82171C34.5233 3.33337 33.7383 3.33337 32.1667 3.33337C30.595 3.33337 29.81 3.33337 29.3217 3.82171ZM17.1667 11.6667C17.1667 10.095 17.1667 9.31004 17.655 8.82171C18.1433 8.33337 18.9283 8.33337 20.5 8.33337C22.0717 8.33337 22.8567 8.33337 23.345 8.82171C23.8333 9.31004 23.8333 10.095 23.8333 11.6667V28.3334C23.8333 29.905 23.8333 30.69 23.345 31.1784C22.8567 31.6667 22.0717 31.6667 20.5 31.6667C18.9283 31.6667 18.1433 31.6667 17.655 31.1784C17.1667 30.69 17.1667 29.905 17.1667 28.3334V11.6667ZM5.98833 15.4884C5.5 15.9767 5.5 16.7617 5.5 18.3334V28.3334C5.5 29.905 5.5 30.69 5.98833 31.1784C6.47667 31.6667 7.26167 31.6667 8.83333 31.6667C10.405 31.6667 11.19 31.6667 11.6783 31.1784C12.1667 30.69 12.1667 29.905 12.1667 28.3334V18.3334C12.1667 16.7617 12.1667 15.9767 11.6783 15.4884C11.19 15 10.405 15 8.83333 15C7.26167 15 6.47667 15 5.98833 15.4884ZM5.5 35.4167C5.16848 35.4167 4.85054 35.5484 4.61612 35.7828C4.3817 36.0172 4.25 36.3352 4.25 36.6667C4.25 36.9982 4.3817 37.3162 4.61612 37.5506C4.85054 37.785 5.16848 37.9167 5.5 37.9167H35.5C35.8315 37.9167 36.1495 37.785 36.3839 37.5506C36.6183 37.3162 36.75 36.9982 36.75 36.6667C36.75 36.3352 36.6183 36.0172 36.3839 35.7828C36.1495 35.5484 35.8315 35.4167 35.5 35.4167H5.5Z" fill="#3B4A3F"/>
</g>
</svg>
