<svg width="41" height="40" viewBox="0 0 41 40" fill="none" xmlns="http://www.w3.org/2000/svg">
<g id="solar:crown-bold">
<path id="Vector" d="M33.9866 23.8767L34.3083 20.72C34.48 19.035 34.5916 17.9234 34.5033 17.2217H34.5366C35.9883 17.2217 37.1666 15.9784 37.1666 14.445C37.1666 12.9117 35.9883 11.6667 34.535 11.6667C33.0816 11.6667 31.9033 12.91 31.9033 14.445C31.9033 15.1384 32.145 15.7734 32.5433 16.26C31.9716 16.6317 31.2233 17.4184 30.0966 18.6017C29.23 19.5134 28.7966 19.9684 28.3133 20.04C28.0448 20.0783 27.7709 20.0378 27.525 19.9234C27.0783 19.7167 26.78 19.1534 26.185 18.025L23.045 12.0834C22.6783 11.3884 22.37 10.8067 22.0916 10.3384C23.23 9.72504 24.0083 8.47671 24.0083 7.03837C24.0083 4.99004 22.4383 3.33337 20.5 3.33337C18.5616 3.33337 16.9916 4.99171 16.9916 7.03671C16.9916 8.47671 17.77 9.72504 18.9083 10.3367C18.63 10.8067 18.3233 11.3884 17.955 12.0834L14.8166 18.0267C14.22 19.1534 13.9216 19.7167 13.475 19.925C13.2291 20.0395 12.9552 20.08 12.6866 20.0417C12.2033 19.97 11.77 19.5134 10.9033 18.6017C9.77665 17.4184 9.02831 16.6317 8.45665 16.26C8.85665 15.7734 9.09665 15.1384 9.09665 14.4434C9.09665 12.9117 7.91665 11.6667 6.46331 11.6667C5.01331 11.6667 3.83331 12.91 3.83331 14.445C3.83331 15.9784 5.01165 17.2217 6.46498 17.2217H6.49665C6.40665 17.9217 6.51998 19.035 6.69165 20.72L7.01331 23.8767C7.19165 25.6284 7.33998 27.295 7.52331 28.7967H33.4766C33.66 27.2967 33.8083 25.6284 33.9866 23.8767ZM18.5916 36.6667H22.4083C27.3833 36.6667 29.8716 36.6667 31.5316 35.1C32.255 34.4134 32.715 33.18 33.045 31.5734H7.95498C8.28498 33.18 8.74331 34.4134 9.46831 35.0984C11.1283 36.6667 13.6166 36.6667 18.5916 36.6667Z" fill="#3B4A3F"/>
</g>
</svg>
