<svg width="41" height="40" viewBox="0 0 41 40" fill="none" xmlns="http://www.w3.org/2000/svg">
<g id="solar:logout-2-bold">
<path id="Vector" fill-rule="evenodd" clip-rule="evenodd" d="M27.375 20C27.375 19.6685 27.2433 19.3505 27.0089 19.1161C26.7745 18.8817 26.4565 18.75 26.125 18.75H7.83666L11.105 15.95C11.2297 15.8432 11.3322 15.7129 11.4066 15.5664C11.481 15.42 11.5258 15.2604 11.5385 15.0966C11.5512 14.9329 11.5315 14.7683 11.4806 14.6121C11.4297 14.456 11.3485 14.3114 11.2417 14.1867C11.1349 14.0619 11.0045 13.9594 10.8581 13.885C10.7117 13.8106 10.552 13.7658 10.3883 13.7531C10.2246 13.7404 10.0599 13.7601 9.90379 13.8111C9.74765 13.862 9.60308 13.9432 9.47833 14.05L3.64499 19.05C3.50777 19.1673 3.3976 19.313 3.32205 19.477C3.24651 19.641 3.2074 19.8194 3.2074 20C3.2074 20.1806 3.24651 20.359 3.32205 20.523C3.3976 20.687 3.50777 20.8326 3.64499 20.95L9.47833 25.95C9.73028 26.1657 10.0576 26.2725 10.3883 26.2469C10.719 26.2212 11.026 26.0653 11.2417 25.8133C11.4574 25.5614 11.5642 25.234 11.5385 24.9034C11.5129 24.5727 11.3569 24.2657 11.105 24.05L7.83833 21.25H26.125C26.4565 21.25 26.7745 21.1183 27.0089 20.8839C27.2433 20.6495 27.375 20.3315 27.375 20Z" fill="#3B4A3F"/>
<path id="Vector_2" d="M16.125 13.3333C16.125 14.5033 16.125 15.0883 16.4067 15.51C16.528 15.6913 16.6837 15.847 16.865 15.9683C17.2867 16.25 17.8717 16.25 19.0417 16.25H26.125C27.1196 16.25 28.0734 16.6451 28.7767 17.3483C29.4799 18.0516 29.875 19.0054 29.875 20C29.875 20.9945 29.4799 21.9484 28.7767 22.6516C28.0734 23.3549 27.1196 23.75 26.125 23.75H19.0417C17.8717 23.75 17.2867 23.75 16.865 24.03C16.6835 24.1518 16.5278 24.3081 16.4067 24.49C16.125 24.9116 16.125 25.4966 16.125 26.6666C16.125 31.38 16.125 33.7383 17.59 35.2016C19.0533 36.6666 21.41 36.6666 26.1233 36.6666H27.79C32.5067 36.6666 34.8617 36.6666 36.3267 35.2016C37.7917 33.7383 37.7917 31.38 37.7917 26.6666V13.3333C37.7917 8.61998 37.7917 6.26165 36.3267 4.79831C34.8617 3.33498 32.505 3.33331 27.7917 3.33331H26.125C21.41 3.33331 19.0533 3.33331 17.59 4.79831C16.125 6.26165 16.125 8.61998 16.125 13.3333Z" fill="#3B4A3F"/>
</g>
</svg>
