<svg width="41" height="40" viewBox="0 0 41 40" fill="none" xmlns="http://www.w3.org/2000/svg">
<g id="solar:settings-bold">
<path id="Vector" fill-rule="evenodd" clip-rule="evenodd" d="M24.2983 3.58665C23.6816 3.33331 22.8983 3.33331 21.3333 3.33331C19.7683 3.33331 18.9866 3.33331 18.3683 3.58665C17.9615 3.75289 17.5915 3.99795 17.2797 4.30772C16.9679 4.6175 16.7205 4.98587 16.5516 5.39165C16.395 5.76331 16.335 6.19831 16.31 6.82998C16.2981 7.28748 16.1701 7.73445 15.938 8.1289C15.706 8.52336 15.3774 8.85235 14.9833 9.08498C14.5812 9.30849 14.1292 9.42689 13.6692 9.42922C13.2092 9.43155 12.756 9.31773 12.3516 9.09831C11.7883 8.80165 11.38 8.63831 10.9766 8.58498C10.0943 8.46985 9.20209 8.70697 8.49331 9.24498C7.96331 9.64831 7.57164 10.3216 6.78998 11.6666C6.00664 13.0116 5.61664 13.6833 5.52831 14.3416C5.41164 15.2183 5.65164 16.105 6.19498 16.8066C6.44164 17.1266 6.78998 17.395 7.32831 17.7316C8.12331 18.2266 8.63331 19.07 8.63331 20C8.63331 20.93 8.12331 21.7733 7.32998 22.2666C6.78998 22.605 6.44164 22.8733 6.19331 23.1933C5.92592 23.5403 5.72956 23.9367 5.61545 24.3596C5.50135 24.7826 5.47173 25.2239 5.52831 25.6583C5.61664 26.315 6.00664 26.9883 6.78998 28.3333C7.57331 29.6783 7.96331 30.35 8.49331 30.755C9.19998 31.2933 10.0933 31.53 10.9766 31.415C11.38 31.3616 11.7883 31.1983 12.3516 30.9016C12.7562 30.6819 13.2097 30.568 13.67 30.5703C14.1304 30.5726 14.5827 30.6912 14.985 30.915C15.795 31.3816 16.275 32.24 16.31 33.17C16.335 33.8033 16.395 34.2366 16.5516 34.6083C16.8916 35.425 17.545 36.075 18.3683 36.4133C18.985 36.6666 19.7683 36.6666 21.3333 36.6666C22.8983 36.6666 23.6816 36.6666 24.2983 36.4133C24.7052 36.2471 25.0751 36.002 25.3869 35.6922C25.6987 35.3825 25.9461 35.0141 26.115 34.6083C26.2716 34.2366 26.3316 33.8033 26.3566 33.17C26.39 32.24 26.8716 31.38 27.6833 30.915C28.0854 30.6915 28.5374 30.5731 28.9974 30.5707C29.4575 30.5684 29.9106 30.6822 30.315 30.9016C30.8783 31.1983 31.2866 31.3616 31.69 31.415C32.5733 31.5316 33.4666 31.2933 34.1733 30.755C34.7033 30.3516 35.095 29.6783 35.8766 28.3333C36.66 26.9883 37.05 26.3166 37.1383 25.6583C37.1947 25.2238 37.1648 24.7824 37.0504 24.3594C36.936 23.9365 36.7393 23.5402 36.4716 23.1933C36.225 22.8733 35.8766 22.605 35.3383 22.2683C34.5433 21.7733 34.0333 20.93 34.0333 20C34.0333 19.07 34.5433 18.2266 35.3366 17.7333C35.8766 17.395 36.225 17.1266 36.4733 16.8066C36.7407 16.4596 36.9371 16.0633 37.0512 15.6403C37.1653 15.2174 37.1949 14.7761 37.1383 14.3416C37.05 13.685 36.66 13.0116 35.8766 11.6666C35.0933 10.3216 34.7033 9.64998 34.1733 9.24498C33.4645 8.70697 32.5723 8.46985 31.69 8.58498C31.2866 8.63831 30.8783 8.80165 30.315 9.09831C29.9104 9.31803 29.4569 9.43201 28.9966 9.42968C28.5362 9.42735 28.0839 9.30878 27.6816 9.08498C27.2878 8.85215 26.9596 8.52307 26.7279 8.12863C26.4961 7.73419 26.3684 7.28732 26.3566 6.82998C26.3316 6.19665 26.2716 5.76331 26.115 5.39165C25.9461 4.98587 25.6987 4.6175 25.3869 4.30772C25.0751 3.99795 24.7052 3.75289 24.2983 3.58665ZM21.3333 25C24.1166 25 26.3716 22.7616 26.3716 20C26.3716 17.2383 24.115 15 21.3333 15C18.5516 15 16.295 17.2383 16.295 20C16.295 22.7616 18.5516 25 21.3333 25Z" fill="#3B4A3F"/>
</g>
</svg>
