<svg width="41" height="40" viewBox="0 0 41 40" fill="none" xmlns="http://www.w3.org/2000/svg">
<g id="solar:cup-bold">
<path id="Vector" d="M37.1666 13.6034V13.725C37.1666 15.1584 37.1666 15.8767 36.8216 16.4634C36.4766 17.05 35.8483 17.3984 34.595 18.0967L33.2733 18.83C34.1833 15.75 34.4883 12.44 34.6 9.61003L34.6166 9.2417L34.62 9.15503C35.705 9.5317 36.315 9.81336 36.695 10.34C37.1666 10.995 37.1666 11.865 37.1666 13.6034ZM3.83331 13.6034V13.725C3.83331 15.1584 3.83331 15.8767 4.17831 16.4634C4.52331 17.05 5.15165 17.3984 6.40498 18.0967L7.72831 18.83C6.81665 15.75 6.51165 12.44 6.39998 9.61003L6.38331 9.2417L6.38165 9.15503C5.29498 9.5317 4.68498 9.81336 4.30498 10.34C3.83331 10.995 3.83331 11.8667 3.83331 13.6034Z" fill="#3B4A3F"/>
<path id="Vector_2" fill-rule="evenodd" clip-rule="evenodd" d="M27.795 3.91172C25.3836 3.51671 22.9435 3.32327 20.5 3.33339C17.5284 3.33339 15.0784 3.59505 13.205 3.91172C11.3067 4.23172 10.3584 4.39172 9.56503 5.36839C8.77336 6.34505 8.81503 7.40005 8.89836 9.51005C9.1867 16.7567 10.75 25.8101 19.25 26.6101V32.5001H16.8667C16.4815 32.5003 16.1084 32.6339 15.8106 32.8782C15.5128 33.1225 15.3089 33.4624 15.2334 33.8401L14.9167 35.4167H10.5C10.1685 35.4167 9.85057 35.5484 9.61615 35.7828C9.38173 36.0173 9.25003 36.3352 9.25003 36.6667C9.25003 36.9982 9.38173 37.3162 9.61615 37.5506C9.85057 37.785 10.1685 37.9167 10.5 37.9167H30.5C30.8316 37.9167 31.1495 37.785 31.3839 37.5506C31.6183 37.3162 31.75 36.9982 31.75 36.6667C31.75 36.3352 31.6183 36.0173 31.3839 35.7828C31.1495 35.5484 30.8316 35.4167 30.5 35.4167H26.0834L25.7667 33.8401C25.6912 33.4624 25.4872 33.1225 25.1895 32.8782C24.8917 32.6339 24.5185 32.5003 24.1334 32.5001H21.75V26.6101C30.25 25.8101 31.815 16.7584 32.1017 9.51005C32.185 7.40005 32.2284 6.34339 31.435 5.36839C30.6417 4.39172 29.6934 4.23172 27.795 3.91172Z" fill="#3B4A3F"/>
</g>
</svg>
